<!-- Generated by IcoMoon.io -->
<svg version="1.1" xmlns="http://www.w3.org/2000/svg" width="32" height="32" viewBox="0 0 32 32">
<title>mic</title>
<path d="M16 21.625c2.589 0 4.688-2.099 4.688-4.688v-11.25c0-2.589-2.099-4.688-4.688-4.688s-4.688 2.099-4.688 4.688v11.25c0 2.589 2.099 4.688 4.688 4.688zM22.563 14.125v2.813c0 3.624-2.938 6.563-6.563 6.563s-6.563-2.938-6.563-6.563v-2.813h-1.875v2.813c0 4.343 3.281 7.919 7.5 8.385v3.802h-3.75v1.875h9.375v-1.875h-3.75v-3.802c4.219-0.466 7.5-4.042 7.5-8.385v-2.813h-1.875z"></path>
</svg>
